<?xml version="1.0" encoding="UTF-8" standalone="no"?><!DOCTYPE svg PUBLIC "-//W3C//DTD SVG 1.1//EN" "http://www.w3.org/Graphics/SVG/1.1/DTD/svg11.dtd"><svg width="100%" height="100%" viewBox="0 0 2000 900" version="1.1" xmlns="http://www.w3.org/2000/svg" xmlns:xlink="http://www.w3.org/1999/xlink" xml:space="preserve" xmlns:serif="http://www.serif.com/" style="fill-rule:evenodd;clip-rule:evenodd;stroke-linejoin:round;stroke-miterlimit:2;"><path d="M438.424,199.231c138.403,0 250.769,112.366 250.769,250.769c0,138.403 -112.366,250.769 -250.769,250.769c-138.403,0 -250.769,-112.366 -250.769,-250.769c0,-138.403 112.366,-250.769 250.769,-250.769Zm0,125.385c69.202,0 125.385,56.183 125.385,125.385c0,69.202 -56.183,125.385 -125.385,125.385c-69.202,0 -125.385,-56.183 -125.385,-125.385c0,-69.202 56.183,-125.385 125.385,-125.385Z" style="fill:#efffd4;"/><path d="M1000,199.231c138.403,0 250.769,112.366 250.769,250.769c0,138.403 -112.366,250.769 -250.769,250.769c-138.403,0 -250.769,-112.366 -250.769,-250.769c0,-138.403 112.366,-250.769 250.769,-250.769Zm0,125.385c69.202,0 125.385,56.183 125.385,125.385c0,69.202 -56.183,125.385 -125.385,125.385c-69.202,0 -125.385,-56.183 -125.385,-125.385c0,-69.202 56.183,-125.385 125.385,-125.385Z" style="fill:#efffd4;"/><path d="M1561.538,199.231c138.403,0 250.769,112.366 250.769,250.769c0,138.403 -112.366,250.769 -250.769,250.769c-138.403,0 -250.769,-112.366 -250.769,-250.769c0,-138.403 112.366,-250.769 250.769,-250.769Zm0,125.385c69.202,0 125.385,56.183 125.385,125.385c0,69.202 -56.183,125.385 -125.385,125.385c-69.202,0 -125.385,-56.183 -125.385,-125.385c0,-69.202 56.183,-125.385 125.385,-125.385Z" style="fill:#efffd4;"/></svg>